<?xml version="1.0" standalone="no"?>
<!DOCTYPE svg PUBLIC "-//W3C//DTD SVG 20010904//EN"
 "http://www.w3.org/TR/2001/REC-SVG-20010904/DTD/svg10.dtd">
<svg version="1.0" xmlns="http://www.w3.org/2000/svg"
 width="600.000000pt" height="600.000000pt" viewBox="0 0 600.000000 600.000000"
 preserveAspectRatio="xMidYMid meet">
<metadata>
Created by potrace 1.11, written by Peter Selinger 2001-2013
</metadata>
<g transform="translate(0.000000,600.000000) scale(0.100000,-0.100000)"
fill="#000000" stroke="none">
<path d="M2705 5989 c-920 -94 -1745 -603 -2242 -1382 -79 -124 -229 -426
-278 -560 -75 -205 -134 -445 -167 -677 -17 -128 -17 -612 0 -740 51 -361 136
-638 292 -955 152 -309 300 -520 540 -768 240 -250 499 -437 825 -597 317
-156 594 -241 955 -292 128 -17 612 -17 740 0 366 52 640 136 965 297 315 156
532 312 785 565 253 253 409 470 565 785 161 325 245 599 297 965 17 128 17
612 0 740 -51 361 -136 638 -292 955 -152 309 -300 520 -540 768 -240 250
-499 437 -825 597 -310 153 -568 233 -918 286 -122 18 -570 27 -702 13z m620
-778 c802 -119 1465 -649 1761 -1407 164 -418 191 -928 75 -1377 -199 -766
-822 -1389 -1588 -1588 -365 -94 -781 -94 -1146 0 -766 199 -1389 822 -1588
1588 -94 365 -94 781 0 1146 141 544 501 1028 987 1329 256 159 537 261 839
308 172 26 485 27 660 1z"/>
<path d="M2840 4499 c-561 -63 -1036 -427 -1245 -954 -79 -199 -117 -467 -96
-677 66 -652 509 -1170 1137 -1329 615 -155 1265 97 1616 626 104 156 163 289
209 471 120 477 -4 988 -332 1362 -317 361 -815 554 -1289 501z"/>
</g>
</svg>
